<svg width="400" height="400" viewBox="0 0 400 400" fill="none" xmlns="http://www.w3.org/2000/svg">
<path d="M0 0H400V400H0V0Z" fill="url(#paint0_linear_4_85)"/>
<path d="M88.6367 130.562L83.6953 159H77.6602L82.6016 130.562H88.6367ZM95.4141 130.562L94.5352 135.602H75.1016L75.9805 130.562H95.4141ZM94.2773 149.273L94.4727 147.633C94.6419 146.279 94.9674 144.99 95.4492 143.766C95.931 142.542 96.569 141.448 97.3633 140.484C98.1706 139.508 99.1471 138.753 100.293 138.219C101.439 137.685 102.76 137.438 104.258 137.477C105.69 137.503 106.882 137.809 107.832 138.395C108.796 138.967 109.551 139.736 110.098 140.699C110.658 141.663 111.029 142.743 111.211 143.941C111.393 145.126 111.419 146.35 111.289 147.613L111.094 149.293C110.924 150.621 110.599 151.904 110.117 153.141C109.648 154.365 109.004 155.458 108.184 156.422C107.376 157.372 106.406 158.115 105.273 158.648C104.141 159.182 102.826 159.43 101.328 159.391C99.8958 159.365 98.6979 159.065 97.7344 158.492C96.7839 157.906 96.0286 157.138 95.4688 156.188C94.9219 155.224 94.5508 154.15 94.3555 152.965C94.1732 151.767 94.1471 150.536 94.2773 149.273ZM100.312 147.613L100.117 149.312C100.091 149.703 100.046 150.185 99.9805 150.758C99.9284 151.331 99.9284 151.91 99.9805 152.496C100.033 153.082 100.195 153.577 100.469 153.98C100.755 154.371 101.204 154.579 101.816 154.605C102.52 154.658 103.086 154.508 103.516 154.156C103.958 153.805 104.297 153.349 104.531 152.789C104.779 152.216 104.954 151.617 105.059 150.992C105.163 150.367 105.247 149.788 105.312 149.254L105.508 147.574C105.534 147.197 105.573 146.715 105.625 146.129C105.677 145.543 105.671 144.964 105.605 144.391C105.553 143.818 105.384 143.329 105.098 142.926C104.824 142.522 104.382 142.301 103.77 142.262C103.092 142.223 102.539 142.385 102.109 142.75C101.693 143.102 101.361 143.564 101.113 144.137C100.866 144.71 100.684 145.309 100.566 145.934C100.449 146.559 100.365 147.118 100.312 147.613ZM142.551 144.371L141.691 149.195H132.082L132.922 144.371H142.551ZM169.906 159H164.594L165.512 153.98L170.141 154.02C171.599 154.033 172.745 153.714 173.578 153.062C174.424 152.411 175.049 151.552 175.453 150.484C175.857 149.404 176.15 148.225 176.332 146.949L176.957 142.555C177.061 141.812 177.139 141.044 177.191 140.25C177.243 139.456 177.198 138.714 177.055 138.023C176.911 137.333 176.599 136.773 176.117 136.344C175.635 135.901 174.906 135.66 173.93 135.621L168.559 135.602L169.438 130.562L174.164 130.582C175.857 130.621 177.309 130.973 178.52 131.637C179.743 132.301 180.72 133.193 181.449 134.312C182.191 135.432 182.693 136.702 182.953 138.121C183.227 139.527 183.266 141.012 183.07 142.574L182.406 146.969C182.159 148.648 181.71 150.224 181.059 151.695C180.408 153.154 179.555 154.436 178.5 155.543C177.445 156.637 176.202 157.49 174.77 158.102C173.337 158.714 171.716 159.013 169.906 159ZM173.051 130.562L168.129 159H162.094L166.996 130.562H173.051ZM188.848 149.273L189.043 147.633C189.212 146.279 189.538 144.99 190.02 143.766C190.501 142.542 191.139 141.448 191.934 140.484C192.741 139.508 193.717 138.753 194.863 138.219C196.009 137.685 197.331 137.438 198.828 137.477C200.26 137.503 201.452 137.809 202.402 138.395C203.366 138.967 204.121 139.736 204.668 140.699C205.228 141.663 205.599 142.743 205.781 143.941C205.964 145.126 205.99 146.35 205.859 147.613L205.664 149.293C205.495 150.621 205.169 151.904 204.688 153.141C204.219 154.365 203.574 155.458 202.754 156.422C201.947 157.372 200.977 158.115 199.844 158.648C198.711 159.182 197.396 159.43 195.898 159.391C194.466 159.365 193.268 159.065 192.305 158.492C191.354 157.906 190.599 157.138 190.039 156.188C189.492 155.224 189.121 154.15 188.926 152.965C188.743 151.767 188.717 150.536 188.848 149.273ZM194.883 147.613L194.688 149.312C194.661 149.703 194.616 150.185 194.551 150.758C194.499 151.331 194.499 151.91 194.551 152.496C194.603 153.082 194.766 153.577 195.039 153.98C195.326 154.371 195.775 154.579 196.387 154.605C197.09 154.658 197.656 154.508 198.086 154.156C198.529 153.805 198.867 153.349 199.102 152.789C199.349 152.216 199.525 151.617 199.629 150.992C199.733 150.367 199.818 149.788 199.883 149.254L200.078 147.574C200.104 147.197 200.143 146.715 200.195 146.129C200.247 145.543 200.241 144.964 200.176 144.391C200.124 143.818 199.954 143.329 199.668 142.926C199.395 142.522 198.952 142.301 198.34 142.262C197.663 142.223 197.109 142.385 196.68 142.75C196.263 143.102 195.931 143.564 195.684 144.137C195.436 144.71 195.254 145.309 195.137 145.934C195.02 146.559 194.935 147.118 194.883 147.613ZM237.121 144.371L236.262 149.195H226.652L227.492 144.371H237.121ZM273.129 153.98L272.25 159H260.688L261.547 153.98H273.129ZM267.621 130.562L262.699 159H256.664L261.566 130.562H267.621ZM288.75 137.867L285.098 159H279.277L282.949 137.867H288.75ZM283.633 132.516C283.633 131.604 283.932 130.849 284.531 130.25C285.143 129.638 285.898 129.326 286.797 129.312C287.669 129.299 288.405 129.573 289.004 130.133C289.616 130.693 289.915 131.422 289.902 132.32C289.915 133.219 289.622 133.967 289.023 134.566C288.424 135.165 287.669 135.471 286.758 135.484C285.885 135.51 285.15 135.243 284.551 134.684C283.952 134.124 283.646 133.401 283.633 132.516ZM302.945 153.16C303.036 152.691 302.913 152.301 302.574 151.988C302.236 151.676 301.839 151.402 301.383 151.168C300.927 150.934 300.549 150.725 300.25 150.543C299.56 150.204 298.909 149.833 298.297 149.43C297.685 149.026 297.145 148.57 296.676 148.062C296.207 147.555 295.842 146.975 295.582 146.324C295.335 145.66 295.237 144.905 295.289 144.059C295.341 143.004 295.589 142.073 296.031 141.266C296.487 140.445 297.079 139.749 297.809 139.176C298.538 138.603 299.358 138.173 300.27 137.887C301.194 137.587 302.158 137.444 303.16 137.457C304.514 137.483 305.719 137.763 306.773 138.297C307.828 138.818 308.655 139.579 309.254 140.582C309.853 141.572 310.146 142.757 310.133 144.137H304.352C304.365 143.733 304.352 143.349 304.312 142.984C304.286 142.607 304.169 142.294 303.961 142.047C303.753 141.799 303.395 141.682 302.887 141.695C302.496 141.708 302.151 141.812 301.852 142.008C301.552 142.19 301.311 142.438 301.129 142.75C300.947 143.062 300.816 143.395 300.738 143.746C300.673 144.072 300.706 144.365 300.836 144.625C300.979 144.872 301.168 145.1 301.402 145.309C301.65 145.504 301.917 145.68 302.203 145.836C302.49 145.992 302.75 146.122 302.984 146.227C304 146.682 304.938 147.19 305.797 147.75C306.656 148.31 307.34 149 307.848 149.82C308.355 150.628 308.583 151.663 308.531 152.926C308.466 154.02 308.186 154.977 307.691 155.797C307.21 156.604 306.572 157.281 305.777 157.828C304.996 158.362 304.124 158.759 303.16 159.02C302.197 159.293 301.22 159.417 300.23 159.391C298.863 159.352 297.646 159.039 296.578 158.453C295.523 157.867 294.69 157.06 294.078 156.031C293.479 154.99 293.173 153.785 293.16 152.418L298.59 152.438C298.59 152.945 298.629 153.408 298.707 153.824C298.798 154.228 298.987 154.553 299.273 154.801C299.573 155.035 300.009 155.152 300.582 155.152C301.012 155.152 301.389 155.074 301.715 154.918C302.04 154.762 302.307 154.534 302.516 154.234C302.724 153.935 302.867 153.577 302.945 153.16ZM327.609 137.867L326.828 142.223H316.145L316.926 137.867H327.609ZM320.012 132.633H325.812L322.453 152.379C322.401 152.717 322.375 153.043 322.375 153.355C322.375 153.655 322.447 153.909 322.59 154.117C322.746 154.312 323.026 154.423 323.43 154.449C323.664 154.449 323.892 154.436 324.113 154.41C324.335 154.384 324.549 154.358 324.758 154.332L324.289 158.863C323.82 159.046 323.339 159.176 322.844 159.254C322.349 159.332 321.841 159.371 321.32 159.371C320.083 159.345 319.1 159.046 318.371 158.473C317.642 157.887 317.134 157.118 316.848 156.168C316.574 155.204 316.49 154.156 316.594 153.023L320.012 132.633Z" fill="white"/>
<path d="M177.536 214.339C177.536 217.978 174.586 220.929 170.946 220.929C167.307 220.929 164.357 217.978 164.357 214.339C164.357 210.7 167.307 207.75 170.946 207.75C174.586 207.75 177.536 210.7 177.536 214.339Z" fill="white"/>
<path d="M170.946 247.286C174.586 247.286 177.536 244.335 177.536 240.696C177.536 237.057 174.586 234.107 170.946 234.107C167.307 234.107 164.357 237.057 164.357 240.696C164.357 244.335 167.307 247.286 170.946 247.286Z" fill="white"/>
<path d="M177.536 267.054C177.536 270.693 174.586 273.643 170.946 273.643C167.307 273.643 164.357 270.693 164.357 267.054C164.357 263.415 167.307 260.464 170.946 260.464C174.586 260.464 177.536 263.415 177.536 267.054Z" fill="white"/>
<path d="M195.107 212.143C192.681 212.143 190.714 214.11 190.714 216.536C190.714 218.962 192.681 220.929 195.107 220.929H230.25C232.676 220.929 234.643 218.962 234.643 216.536C234.643 214.11 232.676 212.143 230.25 212.143H195.107Z" fill="white"/>
<path d="M190.714 242.893C190.714 240.467 192.681 238.5 195.107 238.5H230.25C232.676 238.5 234.643 240.467 234.643 242.893C234.643 245.319 232.676 247.286 230.25 247.286H195.107C192.681 247.286 190.714 245.319 190.714 242.893Z" fill="white"/>
<path d="M195.107 264.857C192.681 264.857 190.714 266.824 190.714 269.25C190.714 271.676 192.681 273.643 195.107 273.643H230.25C232.676 273.643 234.643 271.676 234.643 269.25C234.643 266.824 232.676 264.857 230.25 264.857H195.107Z" fill="white"/>
<path d="M138 194.571C138 184.867 145.867 177 155.571 177H243.429C253.133 177 261 184.867 261 194.571V282.429C261 292.133 253.133 300 243.429 300H155.571C145.867 300 138 292.133 138 282.429V194.571ZM155.571 185.786C150.719 185.786 146.786 189.719 146.786 194.571V282.429C146.786 287.281 150.719 291.214 155.571 291.214H243.429C248.281 291.214 252.214 287.281 252.214 282.429V194.571C252.214 189.719 248.281 185.786 243.429 185.786H155.571Z" fill="white"/>
<path d="M0 33H198V44H0V33Z" fill="white"/>
<path d="M0 33H198V44H0V33Z" fill="white"/>
<path d="M0 78H62V89H0V78Z" fill="white"/>
<path d="M0 78H62V89H0V78Z" fill="white"/>
<path d="M0 63H229V74H0V63Z" fill="white"/>
<path d="M0 63H229V74H0V63Z" fill="white"/>
<path d="M0 48H235V59H0V48Z" fill="white"/>
<path d="M0 48H235V59H0V48Z" fill="white"/>
<path d="M202 333H400V344H202V333Z" fill="white"/>
<path d="M202 333H400V344H202V333Z" fill="white"/>
<path d="M338 378H400V389H338V378Z" fill="white"/>
<path d="M338 378H400V389H338V378Z" fill="white"/>
<path d="M171 363H400V374H171V363Z" fill="white"/>
<path d="M171 363H400V374H171V363Z" fill="white"/>
<path d="M165 348H400V359H165V348Z" fill="white"/>
<path d="M165 348H400V359H165V348Z" fill="white"/>
<defs>
<linearGradient id="paint0_linear_4_85" x1="200" y1="0" x2="200" y2="400" gradientUnits="userSpaceOnUse">
<stop stop-color="#0A0C32"/>
<stop offset="1" stop-color="#363DE3"/>
</linearGradient>
</defs>
</svg>
